<svg width="16" height="19" viewBox="0 0 16 19" fill="none" xmlns="http://www.w3.org/2000/svg">
<path d="M7.59414 18.9332C7.37486 18.8374 7.05228 18.542 7.05228 18.2309V8.28434C6.48203 8.71641 4.79967 11.3474 4.31158 11.4603C3.68092 11.6065 3.29673 10.974 3.59514 10.2843L7.3507 5.65628C7.62253 5.3712 7.91853 5.47811 8.17526 5.72161L11.8336 10.2843C12.2365 11.0705 11.3624 11.8738 10.8139 11.242L8.37642 8.28434V18.0832C8.37642 18.4068 8.08042 18.8159 7.83456 18.9339H7.59414V18.9332Z" fill="#F9FFD3"/>
<path d="M15.2776 1.31032C15.2215 1.38827 15.0729 1.45063 14.9979 1.52116L0.582229 1.55679C-0.0502411 1.47884 -0.216363 0.434299 0.328516 0.0579065L14.9067 0C15.4172 0.0326652 15.5815 0.887899 15.2776 1.31032Z" fill="#F9FFD3"/>
</svg>
